<?xml version="1.0" encoding="utf-8"?>
<!-- Generator: Adobe Illustrator 16.0.0, SVG Export Plug-In . SVG Version: 6.00 Build 0)  -->
<!DOCTYPE svg PUBLIC "-//W3C//DTD SVG 1.1//EN" "http://www.w3.org/Graphics/SVG/1.1/DTD/svg11.dtd">
<svg version="1.1" id="Layer_1" xmlns="http://www.w3.org/2000/svg" xmlns:xlink="http://www.w3.org/1999/xlink" x="0px" y="0px"
	 width="569.016px" height="97.594px" viewBox="0 0 569.016 97.594" enable-background="new 0 0 569.016 97.594"
	 xml:space="preserve">
<g>
	<g>
		<path fill-rule="evenodd" clip-rule="evenodd" fill="#010101" d="M228.372,72.58c-1.278,0.91-2.18,1.266-2.643,1.925
			c-6.438,9.18-20.197,8.358-25.059-1.917c-1.97-4.166-3.031-9.098-3.156-13.718c-0.18-6.654,0.067-13.533,1.594-19.969
			c2.218-9.364,10.359-13.631,19.638-11.004c2.454,0.696,4.462,2.981,6.653,4.571c0.861,0.627,1.658,1.344,2.762,2.245
			c0-7.048-0.018-13.284,0.006-19.523c0.014-3.786,1.283-5.265,4.398-5.246c3.375,0.017,4.68,1.476,4.682,5.396
			c0.014,19.513,0.008,39.025,0.008,58.54c-0.002,5.32-1.02,6.704-4.809,6.558C228.866,80.3,228.047,78.969,228.372,72.58z
			 M228.632,53.943c-0.643-4.059-0.924-8.135-1.992-11.993c-1.419-5.123-4.984-7.392-10.078-7.242
			c-4.793,0.146-8.572,2.677-9.046,7.905c-0.684,7.533-0.681,15.225,0.024,22.756c0.49,5.227,4.307,7.766,9.065,7.875
			c5.095,0.115,8.624-2.182,10.025-7.314C227.685,62.064,227.985,57.991,228.632,53.943z"/>
		<path fill-rule="evenodd" clip-rule="evenodd" fill="#010101" d="M341.296,37.12c1.444-1.41,2.428-2.012,2.898-2.89
			c3.123-5.82,8.197-7.629,14.347-6.922c6.044,0.698,9.959,4.099,11.416,10.082c0.464,1.904,0.965,3.866,0.985,5.806
			c0.111,10.915,0.122,21.834,0.074,32.752c-0.013,3.267-1.605,4.647-4.8,4.532c-2.991-0.105-4.333-1.615-4.309-4.652
			c0.067-9.407,0.036-18.814,0.007-28.223c-0.006-1.735-0.057-3.49-0.313-5.202c-0.674-4.493-2.663-6.894-6.057-7.558
			c-4.38-0.858-8.746,0.527-10.347,4.518c-1.731,4.312-2.856,9.066-3.179,13.7c-0.516,7.396-0.129,14.857-0.162,22.29
			c-0.018,3.799-1.218,5.117-4.508,5.119c-3.328,0-4.562-1.303-4.564-5.092c-0.023-20.094-0.021-40.186-0.002-60.277
			c0.003-3.704,1.319-5.146,4.535-5.172c3.174-0.025,4.59,1.463,4.523,5.143c-0.1,5.566-0.365,11.129-0.539,16.693
			C341.259,33.137,341.296,34.509,341.296,37.12z"/>
		<path fill-rule="evenodd" clip-rule="evenodd" fill="#010101" d="M147.247,55.037c0.438-4.37,0.431-8.84,1.402-13.089
			c2.3-10.055,8.567-14.708,19.002-14.776c10.788-0.07,17.211,4.383,19.583,14.495c1.923,8.194,1.978,16.65-0.054,24.842
			c-2.619,10.553-10.043,15.136-21.861,14.21c-9.672-0.759-16.162-7.213-17.286-17.305c-0.31-2.765-0.365-5.557-0.536-8.334
			C147.413,55.066,147.33,55.051,147.247,55.037z M156.438,53.943c0.419,4.158,0.433,8.271,1.322,12.184
			c1.196,5.256,4.575,7.399,10.281,7.441c5.374,0.04,9.491-2.148,9.959-7.245c0.759-8.216,0.743-16.609-0.062-24.82
			c-0.498-5.083-4.537-7.146-10.039-7.116c-5.459,0.029-8.895,2.168-10.069,7.238C156.897,45.645,156.864,49.873,156.438,53.943z"/>
		<path fill-rule="evenodd" clip-rule="evenodd" fill="#010101" d="M382.21,55.039c0.438-4.371,0.432-8.842,1.403-13.089
			c2.3-10.054,8.567-14.71,19.001-14.778c10.789-0.07,17.208,4.379,19.584,14.493c1.924,8.196,1.978,16.649-0.053,24.843
			c-2.615,10.552-10.043,15.135-21.859,14.211c-9.672-0.758-16.166-7.211-17.29-17.304c-0.308-2.764-0.363-5.554-0.536-8.333
			C382.378,55.067,382.294,55.055,382.21,55.039z M391.403,54.01c0.418,4.127,0.436,8.24,1.33,12.149
			c1.201,5.242,4.605,7.386,10.309,7.411c5.37,0.025,9.451-2.173,9.941-7.279c0.779-8.105,0.789-16.389,0.047-24.5
			c-0.471-5.139-4.426-7.319-9.854-7.404c-5.608-0.088-9.188,2.097-10.39,7.273C391.853,45.678,391.826,49.909,391.403,54.01z"/>
		<path fill-rule="evenodd" clip-rule="evenodd" fill="#010101" d="M463.808,71.08c-1.285,1.119-2.222,1.603-2.658,2.369
			c-3.349,5.889-7.912,8.195-14.398,7.138c-6.641-1.083-10.791-4.773-11.454-11.64c-0.722-7.479-0.567-15.047-0.712-22.579
			c-0.088-4.644-0.047-9.288-0.006-13.933c0.033-3.614,1.453-5.136,4.677-5.005c3.106,0.125,4.478,1.718,4.442,4.921
			c-0.104,9.521-0.042,19.042-0.029,28.563c0.003,1.508-0.039,3.036,0.166,4.521c0.615,4.46,2.834,7.067,6.379,7.702
			c4.392,0.787,8.715-0.682,10.219-4.725c1.705-4.575,2.784-9.549,3.137-14.422c0.518-7.162,0.117-14.389,0.169-21.588
			c0.024-3.623,1.419-5.044,4.684-5c2.967,0.041,4.396,1.564,4.403,4.99c0.033,14.398,0.035,28.797-0.001,43.193
			c-0.011,3.553-1.528,5.003-4.81,4.897c-3.154-0.102-4.313-1.487-4.213-4.998C463.835,74.351,463.808,73.215,463.808,71.08z"/>
		<path fill-rule="evenodd" clip-rule="evenodd" fill="#010101" d="M258.474,56.351c0,2.63-0.231,4.733,0.043,6.769
			c0.863,6.387,3.791,9.201,10.205,9.678c3.695,0.275,7.422,0.15,11.133,0.156c2.467,0.004,4.09,0.939,4.023,3.629
			c-0.066,2.627-1.654,3.604-4.134,3.574c-3.714-0.047-7.43,0.039-11.142-0.039c-11.65-0.246-18.252-5.997-19.158-17.658
			c-0.519-6.661-0.344-13.487,0.487-20.119c1.331-10.613,8.378-15.699,19.647-15.135c9.176,0.459,15.857,7.293,16.513,16.979
			c0.159,2.313,0.175,4.64,0.133,6.958c-0.071,3.922-1.277,5.143-5.284,5.188c-6.15,0.069-12.301,0.021-18.452,0.021
			C261.231,56.351,259.978,56.351,258.474,56.351z M277.097,49.946c-0.132-5.546,0.782-11.122-4.542-14.455
			c-3.265-2.047-7.104-1.981-10.171,0.389c-4.621,3.571-4.037,8.866-4.063,14.066C264.679,49.946,270.659,49.946,277.097,49.946z"/>
		<path fill-rule="evenodd" clip-rule="evenodd" fill="#010101" d="M531.787,56.351c0,2.646-0.233,4.752,0.042,6.788
			c0.869,6.377,3.805,9.188,10.225,9.662c3.694,0.272,7.422,0.146,11.135,0.152c2.475,0.006,4.071,0.969,3.999,3.649
			c-0.063,2.396-1.427,3.551-3.804,3.537c-4.411-0.024-8.833,0.153-13.229-0.115c-10.346-0.63-16.422-6.327-17.354-17.241
			c-0.578-6.768-0.391-13.719,0.447-20.463c1.318-10.607,8.392-15.689,19.662-15.115c9.174,0.467,15.842,7.309,16.495,16.998
			c0.153,2.313,0.174,4.643,0.13,6.959c-0.073,3.91-1.284,5.123-5.305,5.169c-6.149,0.067-12.301,0.019-18.455,0.02
			C534.522,56.351,533.269,56.351,531.787,56.351z M550.323,49.913c0.034-5.364,0.796-10.747-4.225-14.346
			c-2.841-2.033-7.979-1.822-10.514,0.341c-4.434,3.781-3.931,8.92-3.977,14.005C538.073,49.913,544.058,49.913,550.323,49.913z"/>
		<path fill-rule="evenodd" clip-rule="evenodd" fill="#010101" d="M493.928,80.146c-2.089,0-4.177-0.031-6.265,0.007
			c-2.554,0.044-4.344-0.73-4.309-3.695c0.033-2.778,1.749-3.507,4.141-3.501c3.363,0.009,6.73,0.077,10.092-0.049
			c3.125-0.116,6.049-0.714,7.076-4.374c0.945-3.374-0.015-5.975-3.387-8.332c-3.701-2.587-7.564-4.95-11.196-7.632
			c-5.59-4.131-7.619-9.979-5.771-15.854c1.678-5.322,7.112-8.779,13.994-8.868c2.9-0.037,5.803,0.052,8.701-0.031
			c2.575-0.074,4.783,0.323,4.855,3.506c0.08,3.491-2.371,3.685-5.011,3.667c-2.894-0.016-5.891-0.313-8.651,0.331
			c-1.852,0.433-4.035,1.946-4.881,3.589c-1.234,2.391-0.355,5.067,2.014,6.753c3.486,2.486,7.07,4.839,10.619,7.242
			c4.502,3.05,7.934,6.792,8.106,12.614c0.239,8.043-5.075,13.958-13.171,14.544c-2.309,0.169-4.638,0.025-6.958,0.025
			C493.928,80.107,493.928,80.127,493.928,80.146z"/>
		<path fill-rule="evenodd" clip-rule="evenodd" fill="#010101" d="M131.78,27.846c1.506,0,3.016-0.005,4.522,0.001
			c2.278,0.005,3.39,1.168,3.455,3.429c0.073,2.438-1.063,3.633-3.522,3.699c-2.66,0.066-5.34,0.07-7.971,0.412
			c-5.182,0.675-8.287,3.266-8.668,8.405c-0.494,6.667-0.517,13.422-0.029,20.087c0.402,5.5,3.558,8.102,9.127,8.749
			c2.523,0.292,5.088,0.255,7.636,0.345c2.224,0.082,3.44,1.111,3.438,3.437c0,2.391-1.072,3.731-3.539,3.725
			c-3.016-0.011-6.053,0.159-9.041-0.144c-8.758-0.885-14.024-5.311-16.157-13.834c-2.001-7.986-2.064-16.113-0.066-24.105
			c2.345-9.382,8.382-13.966,18.03-14.192c0.928-0.021,1.855-0.003,2.785-0.003V27.846z"/>
		<path fill-rule="evenodd" clip-rule="evenodd" fill="#010101" d="M307.526,36.392c0.729-0.794,1.682-1.478,2.151-2.402
			c2.372-4.678,6.139-7.003,10.787-6.617c2.655,0.22,3.552,1.722,3.528,4.176c-0.023,2.412,0.013,4.683-3.215,5.187
			c-10.551,1.646-13.375,4.756-13.687,15.564c-0.222,7.764-0.042,15.539-0.099,23.309c-0.029,3.855-1.658,5.163-5.445,4.766
			c-2.402-0.25-3.594-1.566-3.6-3.85c-0.035-15.075-0.038-30.151,0.002-45.229c0.008-3.073,2.217-3.885,4.737-3.828
			c2.627,0.058,4.479,1.228,4.288,4.259c-0.082,1.266-0.24,2.529-0.361,3.794C306.92,35.809,307.224,36.101,307.526,36.392z"/>
	</g>
	<g>
		<path fill-rule="evenodd" clip-rule="evenodd" fill="#65C4AE" d="M71.023,30.928h0.009L70.985,30.5
			C70.651,30.146,44.269,6.812,44.269,6.812C44.034,6.577,42.883,5,39.235,5c-2.846,0-4.703,1.225-5.143,1.662l-0.006-0.03
			C34.071,6.631,7.71,30.157,7.376,30.512l-0.047,0.416h0.008c-1.314,1-2.127,2.916-2.127,5c0,4.373,3.545,7.723,7.917,7.723
			c2.696,0,5.073-1.447,6.503-3.504l0.059-0.049c0,0,11.644-21.973,19.483-21.973c7.841-0.002,19.493,21.938,19.493,21.938
			l0.066-0.008c1.43,2.057,3.807,3.405,6.502,3.405c4.373,0,7.918-3.157,7.918-7.53C73.151,33.846,72.34,31.928,71.023,30.928z"/>
		<path fill-rule="evenodd" clip-rule="evenodd" fill="#65C4AE" d="M71.647,59.803c0-3.765-1.42-6.521-5.315-6.521
			c-4.374,0-7.92,3.546-7.92,7.92c0,11.39-0.7,21.386-19.027,21.386c-18.613,0-19.554-11.234-19.554-21.386
			c0-4.374-3.135-7.92-7.508-7.92c-4.252,0-5.564,3.35-5.428,7.556c0.207,6.413,3.934,16.652,7.54,25.564
			c2.738,6.769,13.066,6.037,24.913,6.037c11.147,0,21.262,0.079,24.148-6.037C67.679,77.539,71.647,68.63,71.647,59.803z"/>
	</g>
</g>
</svg>
